<svg version="1.2" xmlns="http://www.w3.org/2000/svg" viewBox="0 0 512 512" width="512" height="512"><style>.a{opacity:1;fill:#fff}</style><path class="a" d="m0 263.5c0 109.2 0.2 135.1 1.3 137.8 0.8 1.7 2.5 4.1 3.8 5.2 1.4 1.1 9.4 5 17.9 8.6 8.5 3.7 46.3 19.8 84 35.9 37.7 16.1 82.7 35.3 100 42.7 17.3 7.4 32.1 13.7 32.8 13.9 0.9 0.3 1.2-27.7 1.2-137.9l0.1-138.4c-21.4-9-46.3-19.6-69.1-29.4-22.8-9.7-70.6-30.1-106.3-45.3-35.6-15.2-64.9-27.6-65.2-27.6-0.3 0-0.5 60.5-0.5 134.5zm500.5-130.1c-5.5 2.4-46.9 20.2-92 39.4-45.1 19.2-94.5 40.3-109.8 46.8l-27.7 11.9c0 248.4 0.3 276.4 1.3 276.1 0.6-0.2 7.7-3.2 15.7-6.6 8-3.4 46.7-19.9 86-36.7 39.3-16.8 84.6-36.1 100.5-42.9 15.9-6.8 30.3-13.4 31.9-14.6 1.6-1.3 3.5-3.8 4.3-5.6 1.1-2.6 1.3-28.5 1.3-137.7 0-74-0.3-134.5-0.7-134.5-0.5 0.1-5.3 2-10.8 4.4zm-278-116.5c-16.5 7.1-65.3 28-108.5 46.4-43.2 18.4-82 35-86.3 36.8-4.7 2.1-7.3 3.7-6.5 4.1 0.7 0.3 35.3 15.1 76.8 32.8 41.5 17.7 93.8 40 116.3 49.6 22.4 9.6 41.1 17.4 41.7 17.4 0.6 0 38-15.8 83.3-35.1 45.2-19.3 97.5-41.6 116.2-49.6 18.7-8 34.6-14.8 35.3-15.2 0.7-0.3-15.7-7.9-36.5-16.8-20.8-8.9-72.7-31.1-115.3-49.4-52.7-22.5-78.9-33.3-82-33.5-4-0.4-7.9 1-34.5 12.5z"/></svg>