<svg version="1.2" xmlns="http://www.w3.org/2000/svg" viewBox="0 0 512 512" width="512" height="512"><style>.a{fill:#fff}</style><path class="a" d="m40.5 55.3c-2.2 0.7-6 2.5-8.5 3.9-2.5 1.4-6.5 4.8-9 7.4-2.4 2.7-5.6 7.4-7 10.4-2.1 4.7-2.5 6.9-2.5 15 0 8.7 0.3 10.1 3.3 16.5 3.2 6.6 7.3 10.9 74 77.2l70.7 70.2c-134.5 134.9-143.5 144.3-145.6 149.1-2 4.5-2.4 7.2-2.4 15 0 8.6 0.3 10.1 3.1 16 1.7 3.6 5.1 8.5 7.5 10.9 2.4 2.4 7.3 5.8 10.9 7.5 6 2.9 7.3 3.1 17 3.1 10 0 10.9-0.2 17.5-3.4 6.6-3.2 12.6-9 93.3-89.5 78.8-78.6 86.6-86.7 89.5-92.6 2.5-5.2 3.2-8 3.5-14.5 0.3-6.3 0-9.2-1.7-13.5-1.1-3-3.3-7.4-4.8-9.7-1.5-2.3-41.3-42.3-88.3-88.8-76.7-75.9-86.2-84.9-92-87.8-5.6-2.8-7.6-3.2-15.5-3.4-5.2-0.2-10.7 0.3-13 1zm243 0c-2.2 0.7-6 2.4-8.5 3.9-2.5 1.4-6.7 5-9.3 7.9-2.7 3-5.8 7.9-6.9 10.9-1.6 4.1-2.2 7.8-2.2 14.5-0.1 8.2 0.2 9.6 3.2 16 3.2 6.6 7 10.6 74 77.2l70.7 70.2c-135.3 135.3-142.3 142.5-145 148.3-2.7 5.6-3 7.3-3 15.8 0 8.6 0.3 10.1 3.1 16 1.7 3.6 5.1 8.5 7.5 10.9 2.4 2.4 7.3 5.8 10.9 7.5 6 2.9 7.3 3.1 17 3.1 9.8 0 11-0.2 17-3.1 5.9-2.9 14.7-11.3 92.3-88 47.1-46.7 87.1-86.9 88.7-89.4 1.6-2.5 3.7-7.2 4.6-10.5 1.2-4.3 1.5-8.2 1.1-13.5-0.4-5.5-1.3-9.1-3.5-13.5-2.6-5.2-13.9-16.8-89.8-92.3-78.1-77.6-87.6-86.6-93.4-89.5-5.6-2.8-7.6-3.2-15.5-3.4-5.2-0.2-10.7 0.3-13 1z"/></svg>