<svg version="1.2" xmlns="http://www.w3.org/2000/svg" viewBox="0 0 512 512" width="512" height="512"><style>.a{fill:#fff}</style><path fill-rule="evenodd" class="a" d="m129.5 16.2l125.5-0.1c122.4-0.1 125.7-0.1 135.5 1.9 5.5 1.1 13.6 3.2 18 4.6 4.4 1.5 12.3 4.8 17.5 7.5 5.2 2.6 12.5 6.9 16.1 9.6 3.7 2.6 8.9 6.9 11.5 9.4 2.7 2.5 7.3 7.2 10.3 10.5 3 3.2 7.5 9.1 10.1 12.9 2.6 3.8 6.3 10.2 8.2 14 2 3.8 4.9 10.8 6.6 15.5 1.6 4.7 3.9 13.3 5.1 19.3 2.1 10.5 2.1 12.8 2.1 133.9 0 108-0.2 124.5-1.6 132.8-0.8 5.2-3 14-4.9 19.5-1.8 5.5-5.1 13.6-7.3 18-2.3 4.4-5.9 10.7-8.1 14-2.3 3.3-6.7 8.9-9.8 12.5-3.2 3.6-8.7 9.1-12.3 12.3-3.6 3.2-9.2 7.6-12.5 9.8-3.3 2.2-9.4 5.8-13.5 7.9-4.1 2.1-11.3 5.1-16 6.8-4.7 1.6-13.2 3.9-19 5.1-10.4 2.1-11.9 2.1-135 2.1-123.1 0-124.6 0-135-2.1-5.8-1.2-14.3-3.5-19-5.1-4.7-1.7-11.9-4.8-16-6.9-4.1-2.1-10.2-5.6-13.5-7.8-3.3-2.3-8.9-6.7-12.5-9.8-3.6-3.1-9.1-8.7-12.3-12.3-3.1-3.6-7.5-9.2-9.8-12.5-2.2-3.3-5.7-9.4-7.8-13.5-2.1-4.1-5.2-11.3-6.9-16-1.6-4.7-3.9-13.3-5.1-19.3-2.1-10.5-2.1-12.8-2.1-134 0-107.9 0.2-124.4 1.6-132.7 0.8-5.2 3-14 4.9-19.5 1.8-5.5 4.9-13.4 7-17.5 2.1-4.1 6.4-11.3 9.6-16 3.2-4.7 9.5-12.2 14.1-16.7 4.6-4.5 9.7-9.2 11.3-10.6 1.7-1.3 5.7-4.2 9-6.4 3.3-2.2 9.2-5.6 13-7.5 3.8-2 10.4-4.8 14.5-6.3 4.1-1.5 12.2-3.7 18-5zm-13.6 156.9c-1 1.3-2.2 3.7-2.8 5.2-0.6 1.5-1.1 4.1-1.1 5.7 0 1.7 0.6 4.5 1.3 6.3 0.9 2.2 12.7 13.4 36 34.2 19 17.1 34.6 31.2 34.6 31.5 0 0.3-15.6 14.5-34.6 31.5-24.8 22.2-35 32-36.1 34.5-0.9 2.2-1.2 5.2-0.9 8 0.3 2.5 1.4 5.6 2.4 6.9 1 1.3 2.9 3.2 4.3 4.3 1.4 1.1 4.5 2.2 7 2.5 2.7 0.3 5.8 0 7.7-0.8 1.8-0.8 22.2-18.5 45.4-39.4 28.6-25.8 42.7-39 43.6-41.2 0.7-1.8 1.3-4.6 1.3-6.3 0-1.6-0.6-4.4-1.3-6.2-0.9-2.2-15-15.5-43.6-41.3-23.2-20.9-43.4-38.5-44.9-39.2-1.5-0.7-4.3-1.2-6.2-1.2-1.9 0-5.1 0.6-7 1.3-1.9 0.6-4.2 2.3-5.1 3.7zm127.4 144.8c-1.2 1.7-2.6 4.6-2.9 6.4-0.3 1.8-0.3 4.9 0 7 0.3 2.2 1.9 5.2 3.8 7.3 1.8 2 4.9 4 6.8 4.5 2.2 0.6 29.4 0.9 71.2 0.7 65.8-0.3 67.7-0.3 70.4-2.3 1.4-1.1 3.6-3.3 4.8-4.8 1.6-2.1 2.1-4.3 2.1-8.7 0-4.4-0.5-6.5-2.1-8.7-1.2-1.5-3.4-3.7-4.8-4.8-2.7-1.9-4.5-2-71.4-2.2-55.4-0.2-69.4 0-72.1 1.1-1.9 0.7-4.5 2.8-5.8 4.5z"/></svg>