<svg version="1.2" xmlns="http://www.w3.org/2000/svg" viewBox="0 0 512 512" width="512" height="512"><style>.a{fill:#fff}</style><path class="a" d="m235.5 55.6c-2.2 0.2-8.9 0.9-15 1.4-6.1 0.6-16.2 2-22.5 3.1-6.3 1-17.1 3.3-24 5-6.9 1.6-18.8 5.1-26.5 7.6-7.7 2.5-20.3 7.2-28 10.5-7.7 3.2-19.2 8.6-25.5 12-6.3 3.3-16.2 9-22 12.6-5.8 3.6-14.3 9.3-19 12.6-4.7 3.3-12.8 9.5-18 13.7-5.2 4.2-14.2 12.1-19.9 17.5-5.7 5.5-11.3 11.7-12.4 13.9-1.6 3-2.1 5.8-2.1 11 0 5.2 0.5 8 2.1 11 1.1 2.2 3.8 5.6 5.9 7.6 2.2 1.9 6.1 4.3 8.9 5.4 3.6 1.3 6.5 1.7 10.5 1.3 3-0.3 7-1.3 8.7-2.2 1.8-0.9 7.7-5.8 13.1-10.8 5.3-5.1 13.1-12 17.2-15.4 4.1-3.3 10.9-8.5 15-11.4 4.1-2.9 12.1-8.2 17.8-11.7 5.6-3.5 15.6-9 22.2-12.3 6.6-3.3 16.4-7.7 21.8-9.9 5.3-2.1 14.6-5.5 20.7-7.4 6.1-1.9 14.8-4.5 19.5-5.7 4.7-1.2 14.8-3.2 22.5-4.5 7.7-1.3 21.9-2.9 31.5-3.6 13.6-0.9 21.5-0.9 35.5 0 9.9 0.7 24.3 2.3 32 3.6 7.7 1.3 17.8 3.3 22.5 4.5 4.7 1.2 14.1 4 21 6.2 6.9 2.2 17.2 6.1 23 8.5 5.8 2.4 16.6 7.6 24 11.5 7.4 3.8 18.4 10.3 24.5 14.3 6.1 4 15.5 10.8 21 15.2 5.5 4.3 14.3 11.9 19.5 16.9 5.2 4.9 11.3 10 13.5 11.3 2.4 1.5 6.2 2.6 9.5 2.9 3.9 0.4 6.9 0 10.5-1.3 2.8-1.1 6.7-3.5 8.9-5.4 2.1-2 4.8-5.4 5.9-7.6 1.6-2.9 2.1-5.9 2.2-11 0-5.8-0.5-7.8-2.6-11.5-1.4-2.5-8-9.6-14.5-15.7-6.6-6.2-16.2-14.7-21.4-18.8-5.2-4.2-14.7-11.1-21-15.4-6.3-4.3-16-10.4-21.5-13.6-5.5-3.3-16.3-8.9-24-12.6-7.7-3.7-20.1-9-27.5-11.7-7.4-2.8-18.9-6.6-25.5-8.5-6.6-1.9-17.5-4.7-24.3-6.1-6.7-1.4-19.1-3.5-27.5-4.6-10.3-1.4-22.7-2.2-38.7-2.4-12.9-0.2-25.3-0.2-27.5 0zm-10 104c-5.5 0.7-13.4 2.1-17.5 2.9-4.1 0.9-12.2 3-18 4.6-5.8 1.7-15.7 5.1-22 7.5-6.3 2.5-16.2 7.1-22 10.1-5.8 3-15.4 8.8-21.5 12.8-6 4-14.6 10.3-19 13.8-4.4 3.6-11.7 10-16.1 14.3-4.5 4.4-8.9 9.5-9.9 11.4-1 1.9-2 6-2.3 9-0.4 4 0 6.9 1.3 10.5 1.1 2.8 3.5 6.7 5.4 8.9 2 2.1 5.4 4.7 7.6 5.8 2.2 1.1 6 2.3 8.5 2.5 2.8 0.4 6.4 0 9.5-1 3.6-1.2 7.3-3.7 13.5-9.3 4.7-4.2 12.6-10.7 17.5-14.4 4.9-3.7 13.1-9.1 18-12.1 4.9-2.9 13.3-7.2 18.5-9.5 5.2-2.3 14.7-5.8 21-7.8 6.3-1.9 16.2-4.5 22-5.8 9.2-1.9 13.5-2.2 35.5-2.3 21.9 0 26.5 0.3 36.8 2.3 6.4 1.2 17.9 4.2 25.5 6.7 7.5 2.5 19.1 7.2 25.7 10.4 6.6 3.3 15.6 8.3 20 11.1 4.4 2.9 10.5 7.2 13.5 9.5 3 2.4 8.9 7.3 13 11 4.1 3.6 9.2 7.5 11.3 8.6 2 1 5.4 2.2 7.5 2.5 2 0.4 6 0.1 8.7-0.5 2.8-0.6 7-2.6 9.5-4.4 2.5-1.9 5.7-5.6 7.2-8.3 1.5-2.7 3-6.7 3.4-8.9 0.4-2.6 0.1-6-1-9.7-1.3-4.9-2.8-7.1-9.3-13.9-4.3-4.5-12.3-11.8-17.8-16.2-5.5-4.4-14.7-11.2-20.5-15-5.8-3.9-17.7-10.5-26.5-14.8-8.8-4.3-21.4-9.6-28-11.8-6.6-2.1-17.4-5.1-24-6.6-6.6-1.5-16.7-3.3-22.5-4.1-6.4-0.8-18.6-1.3-31.5-1.3-11.6 0.1-25.5 0.7-31 1.5zm11 103c-4.4 0.8-12.5 3-18 4.8-5.5 1.8-13.1 4.9-17 6.9-3.8 1.9-11.3 6.3-16.5 9.8-5.2 3.5-13.4 10.2-18.1 14.9-4.7 4.7-9.4 10.3-10.4 12.5-1.1 2.3-2.1 7-2.3 11-0.4 5.8 0 8 1.9 12.4 1.5 3.4 4.1 6.9 6.9 9.3 2.8 2.5 6.6 4.5 10 5.5 3.6 0.9 6.9 1.2 9.5 0.8 2.2-0.4 5.7-1.6 7.8-2.6 2-1.1 7.2-5.1 11.5-9 4.2-4 10.6-8.9 14.2-11 3.6-2.1 9.5-5 13.3-6.4 3.7-1.4 10.9-3.2 16-4.1 6.3-1.1 12-1.4 18.2-1 4.9 0.3 12.6 1.4 17 2.5 4.4 1.2 12.5 4.3 18 7.1 6.3 3.1 12.8 7.4 17.5 11.5 4.1 3.6 9.1 7.6 11 9 1.9 1.3 6 3 9 3.6 4.6 1 6.4 0.9 11.3-0.5 4.3-1.2 6.9-2.8 10.5-6.3 3.2-3.2 5.4-6.5 6.5-9.8 1-2.7 1.7-7 1.7-9.5 0-2.5-0.7-6.7-1.7-9.5-1.2-3.7-3.8-7.2-9.7-13.4-4.5-4.6-11.9-11.2-16.6-14.7-4.7-3.5-13.4-8.8-19.5-11.8-6.1-3-14.7-6.6-19.2-8-4.6-1.4-12.2-3.3-17-4.1-5.4-0.9-14.4-1.5-23.3-1.4-8 0-18.1 0.7-22.5 1.5zm9.5 100.2c-3.6 0.9-9.2 3.3-12.4 5.2-3.2 1.9-8.1 6-10.8 9-2.8 3-6.3 8.2-7.9 11.5-1.6 3.3-3.3 8.5-3.9 11.5-0.6 3-1 7.8-1 10.5 0 2.8 0.7 7.7 1.6 11 0.8 3.3 3 8.7 4.7 11.9 1.8 3.3 5.8 8.3 9.2 11.4 3.3 3 8.1 6.5 10.8 7.8 2.6 1.3 7.3 3.1 10.5 3.9 3.1 0.8 8.3 1.5 11.5 1.5 3.1 0 8.1-0.5 11-1.1 2.8-0.6 7.9-2.5 11.2-4.2 3.3-1.6 8.5-5.4 11.5-8.2 3-2.9 6.9-7.9 8.7-11.1 1.7-3.3 3.9-8.6 4.7-11.9 0.9-3.3 1.6-8.7 1.6-12 0-3.3-0.7-8.6-1.5-11.7-0.8-3.2-2.6-7.9-3.9-10.5-1.3-2.7-4.8-7.5-7.8-10.8-3.1-3.4-8.1-7.4-11.4-9.2-3.2-1.7-8.6-3.9-11.9-4.7-3.3-0.9-8.7-1.6-12-1.5-3.3 0-8.9 0.8-12.5 1.7z"/></svg>