<svg version="1.2" xmlns="http://www.w3.org/2000/svg" viewBox="0 0 512 512" width="512" height="512"><style>.a{fill:#fff}</style><path class="a" d="m166.5 20.6c-4.4 0.8-12.1 2.8-17 4.5-4.9 1.7-13.1 5.1-18 7.7-5 2.6-12.4 7.2-16.5 10.3-4.1 3.1-10.7 9-14.5 13-3.9 4.1-9.5 11-12.5 15.4-2.9 4.4-7.3 12-9.6 17-2.4 5-5.4 12.8-6.7 17.5-1.4 4.7-3 13-3.7 18.5-0.8 5.8-1 14.4-0.7 20.5 0.3 5.8 0.7 11.3 0.9 12.3 0.2 1.5-1 2.4-5.7 4.1-3.3 1.2-8.9 3.9-12.5 6.1-3.6 2.2-9.5 6.9-13.1 10.5-3.7 3.6-8.5 9.4-10.8 13-2.3 3.6-5.6 9.9-7.3 14-1.6 4.1-3.7 11.1-4.5 15.5-1.1 5.6-1.4 11.3-1 19 0.3 6.1 1.3 13.7 2.2 17 0.9 3.3 3.6 10.1 6 15 2.4 4.9 6.6 11.7 9.2 15 2.7 3.3 8.3 8.6 12.4 11.8 4.1 3.3 10.5 7.4 14.4 9.3 3.9 1.8 10.8 4.4 15.5 5.6l8.5 2.3h349c13.2-3.5 20.6-6.3 25-8.5 4.4-2.2 10.9-6.3 14.4-9.2 3.6-2.9 8.7-8 11.4-11.3 2.6-3.3 6.8-10.1 9.2-15 2.4-4.9 5.1-11.7 6-15 0.9-3.3 1.9-11.4 2.2-18 0.3-8.5 0.1-14-1-19-0.8-3.8-2.7-10.2-4.3-14-1.5-3.8-4.3-9.7-6.3-13-1.9-3.3-6.5-9.1-10.1-12.9-3.6-3.8-9.6-9.1-13.5-11.8-3.9-2.7-10.1-6.2-14-7.8-3.9-1.6-10.3-3.6-14.3-4.4-3.9-0.9-9.3-1.6-11.9-1.6h-4.8c-1.2-12.4-2.9-20.2-4.5-25.3-1.7-5-4.9-12.4-7.2-16.2-2.3-3.8-7.4-10.3-11.3-14.4-3.8-4-9.9-9.3-13.5-11.6-3.6-2.4-9.2-5.6-12.5-7-3.3-1.5-9.8-3.6-14.5-4.7-6.9-1.6-10.8-1.9-21-1.6-11.6 0.4-13.5 0.8-26.5 5.2-7.7 2.6-14 4.5-14.1 4.4 0-0.2-1.6-3-3.5-6.3-1.8-3.3-5.9-9.2-9-13-3-3.9-8.5-9.7-12-13-3.5-3.3-10.2-8.6-14.9-11.7-4.7-3.1-11.9-7.2-16-9.2-4.1-1.9-11.6-4.6-16.5-6.1-4.9-1.4-11.7-3-15-3.5-3.3-0.6-11.8-0.9-19-0.9-7.2 0-16.6 0.7-21 1.5zm-34.5 337.4c-4 1.8-8.9 7.5-45 53.2-22.3 28.1-40.9 51.8-41.4 52.7-0.5 0.9-1.3 3.2-1.8 5.1-0.4 2-0.3 5.8 0.2 8.8 0.6 3.2 2.1 6.4 3.7 8.4 1.6 1.7 4.6 4 6.8 4.9 2.2 1 6.1 1.9 8.8 1.9 2.6 0 6.3-0.8 8.3-1.7 2.8-1.4 13.3-13.9 45.3-53.8 26.3-33 42-53.5 42.9-56 0.9-2.5 1.2-5.7 0.8-8.5-0.4-2.5-1.7-6.3-2.9-8.5-1.3-2.3-4-5-6.2-6.2-2.8-1.6-5.7-2.3-9.5-2.3-3.4 0-7.2 0.8-10 2zm119 0.2c-3.8 2-10.5 9.8-45.7 53.8-22.7 28.3-41.8 52.9-42.3 54.5-0.6 1.7-1 5-1 7.5 0 2.5 0.9 6.3 1.8 8.5 1 2.2 3.2 5 4.8 6.3 1.6 1.2 4.5 2.8 6.4 3.4 1.9 0.6 5.8 0.9 8.7 0.7 3.5-0.3 6-1.1 7.9-2.7 1.5-1.3 21.4-25.4 44.1-53.5 22.7-28.2 41.7-52.5 42.3-54.2 0.6-1.6 1-5 1-7.5 0-2.5-0.9-6.3-1.9-8.5-1-2.2-2.9-5-4.2-6.2-1.3-1.2-3.6-2.6-5.1-3.2-1.6-0.6-4.9-1.1-7.5-1.1-3 0-6.5 0.8-9.3 2.2zm118.1 0.1c-3.7 1.8-11 10.5-45.8 54-32.2 40.3-41.5 52.6-42.4 56-0.8 3.1-0.8 5.6 0 9.5 0.6 3 2.2 6.5 3.9 8.4 1.5 1.7 4.5 4 6.7 4.9 2.2 1 6.1 1.9 8.8 1.9 2.6 0 6.3-0.8 8.3-1.7 2.8-1.4 13.3-13.9 45.3-53.8 26.3-33 42-53.5 42.9-56 0.9-2.5 1.2-5.7 0.8-8.5-0.4-2.5-1.7-6.3-2.9-8.5-1.3-2.3-4-5-6.2-6.2-2.8-1.6-5.7-2.3-9.5-2.3-3.8 0-6.9 0.7-9.9 2.3z"/></svg>