<svg version="1.2" xmlns="http://www.w3.org/2000/svg" viewBox="0 0 512 512" width="512" height="512"><style>.a{fill:#fff}</style><path fill-rule="evenodd" class="a" d="m254.8 1c31.2 0 33.4 0.1 37.2 2q4 2 6 6c1.9 3.9 2 6 2 120l-5.3-1.9c-2.8-1-9.3-2.7-14.2-3.7-6.8-1.4-13.1-1.9-25.5-1.9-11.8 0.1-18.9 0.6-25 1.8-4.7 1-12.1 3-16.5 4.4-4.4 1.4-11.4 4.1-15.5 6-4.1 1.9-12 6.4-17.5 10-6.7 4.4-13.7 10.3-21 17.7-6.1 6.1-13.3 14.5-16 18.6-2.8 4.1-6.9 11.3-9.3 16-2.3 4.7-5.5 12.6-7.2 17.5-1.6 4.9-3.7 12.8-4.7 17.5-1.3 6.1-1.8 13.1-1.8 25 0 11.9 0.5 18.9 1.8 25 1 4.7 3.1 12.6 4.7 17.5 1.7 4.9 4.9 12.8 7.2 17.5 2.4 4.7 6.5 11.9 9.3 16 2.7 4.1 9.9 12.5 16 18.6 7.2 7.2 14.5 13.3 21 17.6 5.5 3.7 13.4 8.2 17.5 10.1 4.1 1.8 11.1 4.5 15.5 6 4.4 1.4 11.8 3.4 16.5 4.4 6.1 1.2 13.2 1.7 25 1.8 12.4 0 18.7-0.5 25.5-1.9 4.9-1 11.4-2.7 19.5-5.6v58c0 56-0.1 58.1-2 62q-2 4-6 6c-3.8 1.9-6 2-37 2-31 0-33.2-0.1-37-2q-4-2-6-6c-1.6-3.3-2-6-2-26.5l-7.7-1.8c-4.3-1.1-11.4-3-15.8-4.4-4.4-1.4-13.2-4.7-19.5-7.4-6.3-2.7-17.1-8-36.5-19l-8.5 8.4c-6.2 6.1-9.5 8.6-12 9.2-1.9 0.4-5.1 0.4-7 0-2.9-0.5-7.9-5-27.8-24.8-17.7-17.7-24.6-25.1-25.4-27.7-0.6-2-0.7-5.2-0.3-7.5 0.6-3.2 2.4-5.8 17.5-21.5l-5.2-8.8c-2.9-4.8-7.6-13.6-10.4-19.7-2.9-6.1-7.3-17.1-9.7-24.5-2.5-7.4-5.1-16.3-7.2-26h-11.3c-9.2 0-11.9-0.4-15.2-2q-4-2-6-6c-1.9-3.8-2-6-2-37 0-31 0.1-33.2 2-37q2-4 6-6c3.3-1.6 6-2 26.5-2l1.3-6.2c0.8-3.5 3.4-12.4 5.9-19.8 2.4-7.4 6.8-18.4 9.7-24.5 2.8-6.1 7.5-14.9 15.6-28.5l-8.4-8.8c-6.1-6.3-8.6-9.7-9.1-12.2-0.4-1.9-0.4-5.1 0-7 0.6-2.8 5.2-8 24.9-27.8 17.6-17.7 25-24.6 27.6-25.4 2-0.6 5.2-0.7 7.5-0.3 3.2 0.6 5.8 2.4 21.5 17.5l9.7-5.7c5.4-3.1 13.8-7.6 18.8-9.9 4.9-2.3 13.3-5.8 18.5-7.7 5.2-2 14.6-4.8 32-9.2v-11.3c0-9.2 0.4-11.9 2-15.2 1.3-2.5 3.4-4.7 5.7-6 3.5-1.8 6-1.9 37-2zm219.3 90.4c5.7 0.2 9 1 14 3.2 3.6 1.7 8.7 5 11.3 7.4 3.2 2.9 6.2 7.1 8.5 11.9 3.5 7.1 3.7 8.1 3.7 17.1 0 9-0.2 10-3.7 17.1-2.3 4.8-5.3 9-8.5 11.9-2.6 2.4-7.5 5.7-10.8 7.2-4.2 2-8.2 3-13.5 3.4-5.1 0.4-9.1 0.1-12.5-0.9-2.8-0.9-5.9-1.8-7-2.2-1.6-0.5-6.1 2.7-21.5 15.5-10.7 9-20.5 16.6-21.8 17.1-1.2 0.5-20.2 0.9-82.2 0.9v-30h71.5l16.2-13.5c16.2-13.4 16.3-13.5 15.5-16.8-0.4-1.7-0.7-6.8-0.7-11.2 0.1-6.7 0.6-9 3.1-14.5 1.6-3.6 4.8-8.5 7.1-11 2.2-2.5 6.7-5.9 9.9-7.7 3.3-1.8 7.7-3.7 9.9-4.2 2.2-0.6 7.4-0.9 11.5-0.7zm0 125c5.7 0.2 9 1 14 3.2 3.6 1.7 8.7 5 11.3 7.4 3.2 2.9 6.2 7.1 8.5 11.9 3.5 7.1 3.7 8.1 3.7 17.1 0 9-0.2 10-3.7 17.1-2.3 4.8-5.3 9-8.5 11.9-2.6 2.4-7.7 5.8-11.3 7.5-5.8 2.7-7.5 3-16 3-8.5 0-10.2-0.3-16-3.1-3.6-1.6-8.5-4.8-10.9-7-2.4-2.1-5.7-6.3-10.1-14.4h-105v-30h105l2.9-5.3c1.5-2.8 4.7-6.9 7-9 2.2-2 6.3-4.8 9.1-6.2 2.7-1.4 6.7-2.9 8.7-3.5 2.1-0.5 7.2-0.8 11.3-0.6zm-144 94.6h40c22 0 41 0.4 42.2 0.9 1.3 0.5 11.1 8.1 21.8 17.1 15.4 12.8 19.9 16 21.5 15.5 1.1-0.4 4.2-1.3 7-2.2 3.4-1 7.4-1.3 12.5-0.9 5.3 0.4 9.3 1.4 13.5 3.4 3.3 1.5 8.2 4.8 10.8 7.2 3.2 2.9 6.2 7.1 8.5 11.9 3.5 7.1 3.7 8.1 3.7 17.1 0 9-0.2 10-3.7 17.1-2.3 4.8-5.3 9-8.5 11.9-2.6 2.4-7.7 5.8-11.3 7.5-5.8 2.7-7.5 3-16 3-8.5 0-10.2-0.3-16-3-3.6-1.7-8.7-5.1-11.3-7.5-3.2-3-6.1-7.1-8.5-12-3.3-6.7-3.7-8.4-3.7-15.5 0-4.4 0.3-9.5 0.7-11.3 0.8-3.2 0.7-3.3-31.7-30.2h-71.5zm74-304.6c5.7 0.2 9 1 14 3.2 3.6 1.7 8.7 5 11.3 7.4 3.2 2.9 6.2 7.1 8.5 11.9 3.5 7.1 3.7 8.1 3.7 17.1 0 9-0.2 10-3.7 17.1-2.3 4.8-5.3 9-8.5 11.9-2.6 2.4-7.7 5.8-11.3 7.5-5.8 2.7-7.5 3-16 3-8.5 0-10.2-0.3-16-3.1-3.6-1.6-8.5-4.8-10.9-7-2.4-2.1-5.7-6.3-10.1-14.4h-35v-30h35l2.9-5.2c1.5-2.9 4.7-7 7-9 2.2-2.1 6.3-4.9 9.1-6.3 2.7-1.4 6.7-2.9 8.7-3.5 2.1-0.5 7.2-0.8 11.3-0.6zm-150.3 144.7c4.6 0 11.8 0.4 16 1 4.3 0.5 12.7 2.7 29.8 8.4v191l-11 3.7c-6.1 2-15.1 4.2-20 4.9-5.3 0.7-13.4 0.9-19.5 0.6-5.8-0.4-13.9-1.5-18-2.6-4.1-1-11.1-3.3-15.5-5-4.4-1.7-12.3-5.8-17.5-9.2-5.2-3.4-12.9-9.6-17.1-13.8-4.2-4.2-10.4-11.9-13.8-17.1-3.4-5.2-7.5-13.1-9.2-17.5-1.7-4.4-4-11.4-5.2-15.5-1.6-6-2-10.7-2.1-23.5 0-13.7 0.3-17.3 2.3-25 1.3-4.9 3.8-12.4 5.5-16.5 1.8-4.1 5.8-11.5 9.1-16.5 3.2-4.9 9.2-12.4 13.4-16.6 4.2-4.2 11.4-10.1 16.1-13.2 4.7-3 11-6.7 14-8 3-1.4 9.3-3.7 14-5.1 4.7-1.5 11.2-3 14.5-3.5 3.3-0.5 9.7-0.9 14.2-1zm150.3 275.3c5.7 0.2 9 1 14 3.2 3.6 1.7 8.7 5 11.3 7.4 3.2 2.9 6.2 7.1 8.5 11.9 3.5 7.1 3.7 8.1 3.7 17.1 0 9-0.2 10-3.7 17.1-2.3 4.8-5.3 9-8.5 11.9-2.6 2.4-7.7 5.8-11.3 7.5-5.8 2.7-7.5 3-16 3-8.5 0-10.2-0.3-16-3.1-3.6-1.6-8.5-4.8-10.9-7-2.4-2.1-5.7-6.3-10.1-14.4h-35v-30h35l2.9-5.3c1.5-2.8 4.7-6.9 7-9 2.2-2 6.3-4.8 9.1-6.2 2.7-1.4 6.7-2.9 8.7-3.5 2.1-0.5 7.2-0.8 11.3-0.6z"/></svg>