<svg version="1.2" xmlns="http://www.w3.org/2000/svg" viewBox="0 0 512 512" width="512" height="512"><style>.a{opacity:1;fill:#fff}</style><path fill-rule="evenodd" class="a" d="m258.5 0.4c7.9 0.3 14.7 1.1 20 2.5 4.4 1.2 11.4 3.7 15.5 5.7 4.1 2 10 5.2 13 7.2 3 2.1 8.3 6.4 11.9 9.7 3.5 3.3 8.3 8.7 10.6 12 2.4 3.3 5.9 9.3 7.9 13.3 2 3.9 4.8 11.1 9.1 24.7l0.6 218 4.8 5.5c2.6 3 6.1 7.3 7.7 9.5 1.7 2.2 4.7 6.7 6.7 10 1.9 3.3 5.2 9.8 7.2 14.5 2 4.7 4.7 12.3 6 17 1.3 4.7 2.9 12.3 3.6 17 0.7 5.2 1 13.7 0.6 22-0.3 7.4-1.3 16.9-2.2 21-0.9 4.1-2.8 10.9-4.2 15-1.4 4.1-4.8 12-7.7 17.5-2.8 5.5-7.6 13.4-10.7 17.5-3 4.1-9.1 11-13.5 15.3-4.3 4.3-12 10.6-16.9 13.9-4.9 3.3-12 7.6-15.8 9.4-3.7 1.9-10.6 4.7-15.5 6.3-4.8 1.6-12.3 3.7-16.7 4.6-4.4 0.9-12.7 1.9-18.5 2.2-5.9 0.3-14.7 0-20-0.6-5.2-0.7-13.1-2.1-17.5-3.2-4.4-1.2-11.4-3.4-15.5-5-4.1-1.6-11.6-5.2-16.5-8-4.9-2.8-11.5-7.1-14.5-9.4-3-2.3-8.6-7.3-12.4-11.1-3.8-3.8-9.4-10.3-12.5-14.4-3.1-4.1-7.9-12-10.7-17.5-2.9-5.5-6.3-13.4-7.7-17.5-1.4-4.1-3.4-11.3-4.4-16-1.3-6.3-1.8-12.8-1.8-25.5 0-12.7 0.5-19.1 1.8-25.5 1-4.7 3.1-12.1 4.6-16.5 1.6-4.4 4.4-11.4 6.4-15.5 2-4.1 5.8-10.9 8.5-15 2.7-4.1 7-9.8 14.1-17.5l0.3-107.5c0.4-98.2 0.6-108.1 2.2-115 0.9-4.1 3.3-11.1 5.2-15.5 1.9-4.4 4.9-10.4 6.7-13.4 1.7-2.9 6.4-8.7 10.2-12.9 3.8-4.1 9.7-9.4 13-11.7 3.3-2.4 9.2-5.8 13-7.7 3.8-2 9.5-4.3 12.5-5.3 3-1 8.7-2.4 12.5-3.1 4.3-0.8 11.6-1.2 19-1zm-28.3 42.4c-2.9 1.5-7.1 4.2-9.5 6.1-2.3 1.9-5.8 5.3-7.7 7.7-1.9 2.4-4.7 6.7-6.2 9.6-1.5 2.9-3.4 8.3-4.2 12-1.4 5.9-1.6 21-1.6 118l-0.1 111.3c-10.8 11.2-16 17.3-18.5 20.8-2.5 3.4-6.3 9.8-8.4 14.2-2.2 4.4-4.8 11.4-5.9 15.5-1.1 4.1-2.5 11.6-3.1 16.5-0.8 6.3-0.8 11.7-0.1 18 0.6 4.9 2 12.4 3.1 16.5 1.2 4.1 3.9 11.1 6 15.5 2.2 4.4 6.8 11.6 10.3 16 3.5 4.4 9.5 10.5 13.3 13.7 3.8 3.1 10.3 7.4 14.4 9.7 4.1 2.2 10.7 5.1 14.5 6.5 3.8 1.3 9.9 2.9 13.5 3.5 3.6 0.6 10.8 1.1 16 1.1 5.2 0 12.4-0.5 16-1.1 3.6-0.6 9.6-2.2 13.5-3.5 3.9-1.4 10.4-4.3 14.5-6.5 4.1-2.3 10.6-6.6 14.4-9.7 3.8-3.2 9.8-9.3 13.3-13.7 3.5-4.4 8.1-11.6 10.3-16 2.2-4.4 5.1-12.5 6.6-18 2-7.8 2.6-12.6 2.6-21.5 0.1-6.3-0.4-14.4-1.1-18-0.7-3.6-2.4-9.6-3.7-13.5-1.4-3.9-4.1-9.9-6.1-13.5-1.9-3.6-4.9-8.3-6.6-10.5-1.7-2.2-6.5-7.6-10.8-12l-7.8-8-0.6-228c-3.4-10.1-6.1-15.7-8.3-19-2.1-3.3-6.5-8.4-9.8-11.4-3.2-2.9-8.5-6.7-11.7-8.2-3.1-1.6-8.3-3.6-11.5-4.4-3.1-0.8-9.5-1.5-14.2-1.4-4.7 0-11 0.7-14 1.5-3 0.8-7.9 2.7-10.8 4.2zm7.8 122.2h36v166l8.2 5.4c4.6 3 10.8 7.9 13.8 11 3 3.1 6.7 7.8 8.2 10.4 1.6 2.6 3.4 6.9 4.2 9.7 0.8 2.7 1.8 8.1 2.1 12 0.4 4.1 0.2 9.7-0.5 13.5-0.6 3.6-2.9 10.2-5.1 14.7-2.8 6-5.6 10-10.2 14.5-3.4 3.5-8.9 7.7-12.2 9.5-3.3 1.7-8.7 3.9-12 4.8-3.6 1.1-9.5 1.8-14.5 1.8-5 0-10.9-0.7-14.5-1.8-3.3-0.9-8.7-3.1-12-4.8-3.3-1.8-8.8-6-12.2-9.5-4.6-4.5-7.4-8.5-10.2-14.5-2.2-4.5-4.5-11.1-5.1-14.7-0.7-3.8-0.9-9.4-0.5-13.5 0.3-3.9 1.3-9.3 2.1-12 0.8-2.8 2.6-7.1 4.2-9.7 1.5-2.6 5.2-7.3 8.2-10.4 3-3.1 9.2-8 22-16.4z"/></svg>